<svg id="ac6da5b6-a8a2-47b2-b64d-a9afadb8a6d4" data-name="Capa 1" xmlns="http://www.w3.org/2000/svg" viewBox="0 0 147.45 139.74"><defs><style>.f727b319-81b6-4a01-8d55-d8352029d0b7{fill:#03a8f3;}.fc4c6a27-b5e9-476b-afa2-6ac6949fb7b3{fill:#96ca00;}.a8fc80bd-2dcb-4289-a5e1-70ee8f5d1b71{fill:#95c900;}.a0b7ad07-fb96-489e-a938-ca6f52ebeae0{fill:#0392d3;}.aeb3b532-715e-418e-815c-f9ac903d9703{fill:#0375b3;}.a89b427a-20d5-499c-95ea-de542b662ebc{fill:#0691d0;}.fe4308cd-c91e-4316-a671-dc86d6eba20d{fill:#0b7caf;}.b5c3272f-4708-4b64-abd0-b9cdb6b37e26{fill:#098ac3;}.f5da5195-d697-439d-ad69-bb1109c6e834{fill:#ade900;}.e82c3d18-3293-438b-bff0-4722687feb67{fill:#10668b;}.a004dd4a-c2fd-4ea9-88c8-bb260809bce1{fill:#0287d0;}</style></defs><title>logo ionwater</title><path class="f727b319-81b6-4a01-8d55-d8352029d0b7" d="M7165.28,7214.54q7.22-14.85,14.43-29.69c1.6-3.28,3.1-6.61,4.78-9.84a11.72,11.72,0,0,0,1.18-5.44q.14-13,.3-25.94c0-2.05.15-2.15,2.23-2.08,1.59.06,3.18.05,4.77,0,.88,0,1.25.3,1.24,1.23,0,10.28-.25,20.54-.42,30.81a4.89,4.89,0,0,1-.53,2.12q-10.42,21.51-20.84,43a6.44,6.44,0,0,1-.4.66c-.45.19-.75-.15-1.1-.32a33.68,33.68,0,0,0-4.06-2.17A3.6,3.6,0,0,1,7165.28,7214.54Z" transform="translate(-7127.73 -7130.46)"/><path class="f727b319-81b6-4a01-8d55-d8352029d0b7" d="M7228.17,7217.71c-1.29-2.68-2.55-5.25-3.78-7.84-4.35-9.15-8.73-18.27-13.33-27.29a30.57,30.57,0,0,1-3.57-14.44c.08-6.65-.24-13.3-.26-20,0-1.66-.26-3.31-.19-5,0-1.15.42-1.61,1.52-1.54a41,41,0,0,0,5.2-.07c1.25-.07,1.51.21,1.54,1.44.23,9.6.25,19.21.59,28.81a6.59,6.59,0,0,0,.66,2.76q8.47,17.55,16.92,35.11c.77,1.6.71,1.94-.64,3.11A63.87,63.87,0,0,0,7228.17,7217.71Z" transform="translate(-7127.73 -7130.46)"/><path class="f727b319-81b6-4a01-8d55-d8352029d0b7" d="M7220.5,7130.5c3.16,0,5.12,2.18,4.74,5.17-.29,2.34-2.21,3.78-4.87,3.77l-39.44-.1a4.41,4.41,0,0,1-4.21-2.35,4.66,4.66,0,0,1,.42-4.93,3.65,3.65,0,0,1,3.23-1.6Z" transform="translate(-7127.73 -7130.46)"/><path class="fc4c6a27-b5e9-476b-afa2-6ac6949fb7b3" d="M7165.28,7214.54a13.43,13.43,0,0,0,1.61,2.21,25.79,25.79,0,0,1,4,5.13,91.84,91.84,0,0,0,7,8.24,196.62,196.62,0,0,0,17,16.28,4.35,4.35,0,0,0,.55.36,1.26,1.26,0,0,1,.42.16c1.41,1.13,2.79,2.31,4.22,3.43,1.81,1.58,3.76,3,5.61,4.52a.72.72,0,0,1,.15.27c1.57,1.5,3.46,2.61,5.27,4.17l-7.13-.8c-2.34-.26-4.66-.65-7-1.12s-4.63-.86-6.93-1.38a105.86,105.86,0,0,1-23.32-8c-17.79-8.72-29.32-22.7-34.93-41.66a102.1,102.1,0,0,1-3.52-18.18,121.32,121.32,0,0,1-.43-18.48,169.14,169.14,0,0,1,5.53-36.52,1.12,1.12,0,0,1,.12-.17c.47,2.48.91,4.9,1.4,7.31s1,4.82,1.57,7.21c5,21.44,12.76,41.74,24.39,60.5A74.64,74.64,0,0,0,7165.28,7214.54Z" transform="translate(-7127.73 -7130.46)"/><path class="a8fc80bd-2dcb-4289-a5e1-70ee8f5d1b71" d="M7134.53,7228.82c21.22,20.62,46.1,32.17,76,31,.22.5,0,.54-.15.62-7,4.1-14.35,7.42-22.39,9a36.07,36.07,0,0,1-29.75-6.84c-7.25-5.43-12.63-12.45-17.17-20.19a94.83,94.83,0,0,1-6.24-12.67C7134.72,7229.43,7134.63,7229.12,7134.53,7228.82Z" transform="translate(-7127.73 -7130.46)"/><path class="f727b319-81b6-4a01-8d55-d8352029d0b7" d="M7197.76,7246.78c3.54-.11,7.08.05,10.62.09,5.65.06,11.3.08,16.95.09a3.33,3.33,0,0,1,2.49,1,40.55,40.55,0,0,0,5.11,4.23,3,3,0,0,1,1,1.19c.68,1.42.28,2-1.27,2l-19-.2c-.41,0-.81,0-1.22-.05-3.18-1.94-6.46-3.72-9.66-5.63a32.9,32.9,0,0,1-3.42-2.05C7198.83,7247,7198.06,7247.48,7197.76,7246.78Z" transform="translate(-7127.73 -7130.46)"/><path class="a0b7ad07-fb96-489e-a938-ca6f52ebeae0" d="M7259.75,7195.63a150.82,150.82,0,0,1,5.21,25.06c.26,2.5.43,5,.46,7.51,0,1.49-.31,1.87-1.8,1.79a50.37,50.37,0,0,0-10.27.52,30.93,30.93,0,0,0-11.26,3.65,18.14,18.14,0,0,0-8.87,12.85c-.19,1-.32,1.95-.49,3a23,23,0,0,1-4.84-5.22c-2.68-3.76-4.36-7.84-4-12.57a23.76,23.76,0,0,1,3.6-10.2,45.16,45.16,0,0,1,10.12-11.36A126,126,0,0,1,7259.75,7195.63Z" transform="translate(-7127.73 -7130.46)"/><path class="aeb3b532-715e-418e-815c-f9ac903d9703" d="M7263.35,7232.94a74.91,74.91,0,0,1,11,.66c.74.1,1,.35.76,1-3.16,7.88-6.35,15.74-11.81,22.41a31.86,31.86,0,0,1-4,4.13,13.05,13.05,0,0,1-14.54,2.15,25.94,25.94,0,0,1-4.44-2.45,9,9,0,0,1-4-6.13c-.52-3.05-1-6.11-.33-9.2a13,13,0,0,1,7.28-9.07,32.64,32.64,0,0,1,10.86-3.11A60.71,60.71,0,0,1,7263.35,7232.94Z" transform="translate(-7127.73 -7130.46)"/><path class="a89b427a-20d5-499c-95ea-de542b662ebc" d="M7197.76,7246.78c2.21.31,3.83,1.83,5.7,2.82,2.47,1.31,4.86,2.77,7.28,4.18a4.45,4.45,0,0,1,1.62,1.3h-3.07c-.17-.55-.66-.78-1.1-1-3.8-2.2-7.62-4.36-11.39-6.61a11.09,11.09,0,0,0-1.12-.48l-.23-.19Z" transform="translate(-7127.73 -7130.46)"/><path class="fe4308cd-c91e-4316-a671-dc86d6eba20d" d="M7195.68,7247a2.36,2.36,0,0,1,1.71.54c3,1.78,6,3.47,9,5.19l2.77,1.61c.3.18.7.39.17.78l-3.44.07a.15.15,0,0,1-.1-.09c.26-.65.89-.25,1.3-.45-2.39-1.35-4.73-2.81-7.16-4.11A38.29,38.29,0,0,1,7195.68,7247Z" transform="translate(-7127.73 -7130.46)"/><path class="b5c3272f-4708-4b64-abd0-b9cdb6b37e26" d="M7170.88,7221.88a44,44,0,0,1-4-5.13c1.61.37,2.82,1.51,4.28,2.19.29.14.57.33.85.5A12.9,12.9,0,0,1,7170.88,7221.88Z" transform="translate(-7127.73 -7130.46)"/><path class="f5da5195-d697-439d-ad69-bb1109c6e834" d="M7201.62,7256.79a60.79,60.79,0,0,1-9.16-1.54,102.21,102.21,0,0,1-20.25-6.15,75.4,75.4,0,0,1-18.23-10.73,62.84,62.84,0,0,1-17.45-22.93,78.49,78.49,0,0,1-5.57-18,90.88,90.88,0,0,1-1.83-17.95c0-1.68-.26-3.39-.15-5.08.28-4.36.13-8.76.66-13.11.58-4.84,1.11-9.69,2-14.49a15.37,15.37,0,0,1,.83-2.51c.14-.39.41-.8.82-.83s.74.42.92.84a32.18,32.18,0,0,1,1.6,5.62,223.34,223.34,0,0,0,6.69,22.54c1.83,5.18,3.93,10.25,6.18,15.26a170.51,170.51,0,0,0,14.55,26.16c2.73,4,5.76,7.81,8.87,11.54a162.07,162.07,0,0,0,13.27,14.08c3.4,3.21,6.88,6.32,10.49,9.31,2.15,1.77,4.42,3.42,6.4,5.41l.23.24c.48.47,1.07,1.05.83,1.68S7202.09,7256.6,7201.62,7256.79Z" transform="translate(-7127.73 -7130.46)"/><path class="e82c3d18-3293-438b-bff0-4722687feb67" d="M7199.89,7250.49c.93-.07,1.55.6,2.28,1,1.66.92,3.31,1.87,5,2.82a4.39,4.39,0,0,1,.55.45c-.72.33-1.38,0-1.93.3A53.79,53.79,0,0,1,7199.89,7250.49Z" transform="translate(-7127.73 -7130.46)"/><path class="f5da5195-d697-439d-ad69-bb1109c6e834" d="M7180.8,7269.11a36.66,36.66,0,0,1-21.82-7.56,51.24,51.24,0,0,1-5.69-4.89,61.62,61.62,0,0,1-6.72-8,85.28,85.28,0,0,1-4.66-7.36,21,21,0,0,1-1.07-2.54c-.16-.39-.26-.83.09-1.14a1,1,0,0,1,1.24,0,24.79,24.79,0,0,1,3.84,2.58,115.3,115.3,0,0,0,11.64,7.81,100.15,100.15,0,0,0,12.26,6.13,86.33,86.33,0,0,0,14,4.39,117.1,117.1,0,0,0,11.93,1.92c1.6.2,3.22.25,4.82.52.8.13,2,.14,2.09,1.06s-.84,1.38-1.6,1.76a51.81,51.81,0,0,1-16,4.92C7183.51,7268.89,7181.82,7269,7180.8,7269.11Z" transform="translate(-7127.73 -7130.46)"/><path class="f727b319-81b6-4a01-8d55-d8352029d0b7" d="M7225,7233.46a23.85,23.85,0,0,1,1.81-7.3c2.46-5.71,6.57-10.06,11.16-14.08a121.15,121.15,0,0,1,13.49-10.13,33.41,33.41,0,0,1,5.44-3.14,1.64,1.64,0,0,1,2.5.94c1.06,2.29,1.37,4.8,2,7.22a111.09,111.09,0,0,1,2.4,13.53,25.55,25.55,0,0,1,.28,6.24c-.15,1.19-.67,1.6-1.85,1.79-3.63.59-7.33.32-10.95,1.08-4.6,1-9,2.46-12.65,5.45a18.27,18.27,0,0,0-5.59,8.1,10.18,10.18,0,0,1-.68,1.63c-.68,1.22-1.34,1.3-2.35.35a15.54,15.54,0,0,1-3.38-5A19.29,19.29,0,0,1,7225,7233.46Z" transform="translate(-7127.73 -7130.46)"/><path class="a004dd4a-c2fd-4ea9-88c8-bb260809bce1" d="M7237,7249.28a11.34,11.34,0,0,1,4.11-9.85,20.67,20.67,0,0,1,8.64-4,57.58,57.58,0,0,1,7.83-1.18,70.59,70.59,0,0,1,8.35-.14,38.74,38.74,0,0,1,4.93.43c1.64.22,2.21,1.19,1.67,2.78a72.14,72.14,0,0,1-6,12.8,38.48,38.48,0,0,1-7.58,9.59c-2.71,2.39-5.77,4.06-9.52,3.63a18.4,18.4,0,0,1-7.38-2.79,9.89,9.89,0,0,1-4.83-7.65A19.93,19.93,0,0,1,7237,7249.28Z" transform="translate(-7127.73 -7130.46)"/></svg>